HIERARCHY
ROOT Hips
{
 OFFSET 0.000000 0.000000 0.000000
 CHANNELS 6 Xposition Yposition Zposition Yrotation Xrotation Zrotation
 JOINT Chest
 {
  OFFSET 0.000000 9.585900 0.002600
  CHANNELS 3 Yrotation Xrotation Zrotation
  JOINT Chest2
  {
   OFFSET 0.000000 9.601200 -0.005300
   CHANNELS 3 Yrotation Xrotation Zrotation
   JOINT Chest3
   {
    OFFSET 0.000000 9.561800 0.000000
    CHANNELS 3 Yrotation Xrotation Zrotation
    JOINT Chest4
    {
     OFFSET 0.000000 9.552100 0.000000
     CHANNELS 3 Yrotation Xrotation Zrotation
     JOINT Neck
     {
      OFFSET 0.000000 14.453000 0.000000
      CHANNELS 3 Yrotation Xrotation Zrotation
      JOINT Head
      {
       OFFSET 0.000000 8.936500 -0.011300
       CHANNELS 3 Yrotation Xrotation Zrotation
       End Site
       {
        OFFSET 0.000000 17.073600 -0.006000
       }
      }
     }
     JOINT RightCollar
     {
      OFFSET -2.921100 9.558500 0.000000
      CHANNELS 3 Yrotation Xrotation Zrotation
      JOINT RightShoulder
      {
       OFFSET -13.519700 0.000000 0.000000
       CHANNELS 3 Yrotation Xrotation Zrotation
       JOINT RightElbow
       {
        OFFSET 0.000000 -29.696600 0.000000
        CHANNELS 3 Yrotation Xrotation Zrotation
        JOINT RightWrist
        {
         OFFSET 0.000000 -24.004700 0.000000
         CHANNELS 3 Yrotation Xrotation Zrotation
         End Site
         {
          OFFSET 0.000000 -17.728500 0.000000
         }
        }
       }
      }
     }
     JOINT LeftCollar
     {
      OFFSET 2.921100 9.558500 0.000000
      CHANNELS 3 Yrotation Xrotation Zrotation
      JOINT LeftShoulder
      {
       OFFSET 13.519700 0.000000 0.000000
       CHANNELS 3 Yrotation Xrotation Zrotation
       JOINT LeftElbow
       {
        OFFSET 0.000000 -29.696600 0.000000
        CHANNELS 3 Yrotation Xrotation Zrotation
        JOINT LeftWrist
        {
         OFFSET 0.000000 -24.004700 0.000000
         CHANNELS 3 Yrotation Xrotation Zrotation
         End Site
         {
          OFFSET 0.000000 -17.728500 0.000000
         }
        }
       }
      }
     }
    }
   }
  }
 }
 JOINT RightHip
 {
  OFFSET -7.771700 -0.012900 -0.001300
  CHANNELS 3 Yrotation Xrotation Zrotation
  JOINT RightKnee
  {
   OFFSET 0.000000 -40.869800 0.001200
   CHANNELS 3 Yrotation Xrotation Zrotation
   JOINT RightAnkle
   {
    OFFSET 0.000000 -39.717900 0.002100
    CHANNELS 3 Yrotation Xrotation Zrotation
    JOINT RightToe
    {
     OFFSET 0.000000 -4.965400 11.033500
     CHANNELS 3 Yrotation Xrotation Zrotation
     End Site
     {
      OFFSET 0.000000 -1.423100 5.872300
     }
    }
   }
  }
 }
 JOINT LeftHip
 {
  OFFSET 7.771700 -0.012900 -0.001300
  CHANNELS 3 Yrotation Xrotation Zrotation
  JOINT LeftKnee
  {
   OFFSET 0.000000 -40.869800 0.001200
   CHANNELS 3 Yrotation Xrotation Zrotation
   JOINT LeftAnkle
   {
    OFFSET 0.000000 -39.717900 0.002100
    CHANNELS 3 Yrotation Xrotation Zrotation
    JOINT LeftToe
    {
     OFFSET 0.000000 -4.965400 11.033500
     CHANNELS 3 Yrotation Xrotation Zrotation
     End Site
     {
      OFFSET 0.000000 -1.423100 5.872300
     }
    }
   }
  }
 }
}
MOTION
Frames: 5
Frame Time: 0.008333
0.000000 85.388000 0.000000 0.000000 -5.767877 0.000000 0.000000 11.653817 0.000000 0.000000 -5.885947 0.000000 0.000000 -0.000000 0.000000 0.000000 -0.000000 0.000000 0.000000 12.528835 0.000000 0.000000 0.711642 0.000000 0.000000 -0.000000 0.000000 0.000000 0.000000 -90.000000 0.000000 -2.309062 0.000000 0.000000 2.309062 0.000000 0.000000 -0.000000 0.000000 0.000000 -0.000000 90.000000 0.000000 -2.309062 0.000000 0.000000 2.309062 0.000000 0.000000 8.520406 0.000000 0.000000 1.905762 0.000000 -0.000000 -4.658285 0.000000 0.000000 -0.000000 0.000000 0.000000 8.520406 0.000000 0.000000 1.905762 0.000000 -0.000000 -4.658285 0.000000 0.000000 -0.000000 0.000000
29.553137 49.955998 64.101731 174.260533 -34.168905 -7.629064 7.456424 21.494042 7.777898 0.915962 3.200339 0.809677 1.503995 5.142589 1.321647 6.023565 18.058094 5.483268 -1.945282 18.395349 1.676498 -4.154149 -1.665446 3.737141 -1.916590 -1.271801 -2.880668 15.312865 -17.797696 -15.325864 -173.183280 -56.241758 177.709518 -5.247494 -12.957770 20.746788 -17.176939 2.098663 -0.747296 -5.710111 -22.273064 7.980436 153.942899 -55.686980 -169.437984 32.611668 -1.482096 -28.047888 -0.611340 -46.259571 9.946483 -114.059000 80.583587 -102.007446 0.073227 -13.940819 -3.069064 -0.306235 1.040073 -0.167472 -8.718366 -50.289559 16.776709 -153.638961 80.420743 -161.436140 0.854678 -17.908342 8.265053 -0.276666 -0.549948 -0.087810
29.553382 49.959539 64.108259 174.262985 -34.265495 -7.642740 7.472915 21.567562 7.792460 0.918744 3.217299 0.816381 1.514309 5.148342 1.311940 6.049752 18.122445 5.500957 -1.968186 18.507105 1.737190 -4.202236 -1.412483 3.862296 -1.974549 -1.160511 -2.835905 15.465644 -17.785033 -15.289953 -173.102317 -56.092057 177.762437 -5.185937 -12.926884 20.808557 -17.264893 2.223684 -0.759643 -5.925950 -22.282215 7.965557 154.218433 -55.484989 -169.740341 32.522350 -1.542583 -28.064270 -0.624242 -46.162641 9.967642 -113.994455 80.586399 -101.947905 0.078676 -13.920937 -3.066725 -0.305271 1.027995 -0.168582 -8.688525 -50.195535 16.782204 -153.480509 80.416874 -161.281563 0.855137 -17.892133 8.255231 -0.274112 -0.560869 -0.067581
29.552321 49.962362 64.116821 174.277078 -34.366803 -7.658520 7.468087 21.599712 7.779998 0.927614 3.258869 0.828216 1.517960 5.171903 1.323801 6.076724 18.172148 5.501964 -1.991507 18.625522 1.798941 -4.244805 -1.147065 3.984939 -2.038448 -1.039069 -2.775539 15.618115 -17.773804 -15.255955 -172.964681 -55.968409 177.769915 -5.124143 -12.891699 20.858493 -17.348721 2.359351 -0.769525 -6.146880 -22.283846 7.953237 154.497518 -55.292396 -170.042175 32.445547 -1.622929 -28.065355 -0.635707 -46.058593 9.976995 -113.923307 80.589334 -101.877970 0.085252 -13.908437 -3.063892 -0.311562 1.021122 -0.164614 -8.669899 -50.098970 16.786199 -153.263193 80.412278 -161.077732 0.863628 -17.862098 8.271316 -0.270567 -0.579360 -0.069047
29.553568 49.964225 64.128342 174.269327 -34.467442 -7.679997 7.485950 21.615934 7.779566 0.934446 3.271359 0.829827 1.524339 5.230275 1.352307 6.094003 18.203247 5.496819 -2.007554 18.753475 1.854980 -4.281994 -0.876679 4.109280 -2.097729 -0.896911 -2.705219 15.765279 -17.769564 -15.228330 -172.776338 -55.872164 177.731867 -5.082933 -12.851109 20.919054 -17.425824 2.516084 -0.781332 -6.371930 -22.290319 7.948516 154.743969 -55.110737 -170.308714 32.381447 -1.703867 -28.060785 -0.648255 -45.959232 10.010879 -113.798086 80.593783 -101.749284 0.092832 -13.882108 -3.067877 -0.313112 1.014747 -0.166402 -8.665971 -50.001171 16.826472 -153.061532 80.405340 -160.894198 0.877828 -17.843808 8.277521 -0.273423 -0.599568 -0.083455
